<svg xmlns="http://www.w3.org/2000/svg" viewBox="0 0 32 32" id="goal">
  <path fill="#6E6A63" d="M29.974 6.77a1 1 0 0 0-.658-.719l-2.525-.842-.843-2.525a1 1 0 0 0-1.655-.391L21.08 5.506a13.024 13.024 0 1 0 5.41 5.418l3.217-3.217a1 1 0 0 0 .267-.937ZM15 28a11 11 0 1 1 5.038-20.756c.006.024.006.048.014.072l.8 2.414-1.668 1.67a7.028 7.028 0 1 0 1.416 1.416l1.672-1.672 2.414.8c.021.007.044.005.066.011A10.957 10.957 0 0 1 15 28Zm5-11a5.015 5.015 0 1 1-2.247-4.167l-2.242 2.242A1.96 1.96 0 0 0 15 15a2 2 0 1 0 2 2 1.96 1.96 0 0 0-.075-.511l2.242-2.242A4.969 4.969 0 0 1 20 17Zm4.729-7.144-1.938-.647-.646-1.939 2.417-2.419.49 1.465a1 1 0 0 0 .632.633l1.464.488Z"></path>
</svg>
