<svg xmlns="http://www.w3.org/2000/svg"  viewBox="0 0 48 48" width="96px" height="96px"><linearGradient id="SVGID_1_" x1="9.858" x2="38.142" y1="38.032" y2="9.748" gradientTransform="matrix(1 0 0 -1 0 47.89)" gradientUnits="userSpaceOnUse"><stop offset="0" stop-color="#f44f5a"/><stop offset=".443" stop-color="#ee3d4a"/><stop offset="1" stop-color="#e52030"/></linearGradient><path fill="url(#SVGID_1_)" d="M44,24c0,11-9,20-20,20S4,35,4,24S13,4,24,4S44,13,44,24z"/><linearGradient id="SVGID_00000163787936624147145380000012401931921407201184_" x1="12.879" x2="35.169" y1="35.011" y2="12.721" gradientTransform="matrix(1 0 0 -1 0 47.89)" gradientUnits="userSpaceOnUse"><stop offset="0" stop-color="#fafafb"/><stop offset="1" stop-color="#c8cdd1"/></linearGradient><circle cx="24" cy="24" r="16" fill="url(#SVGID_00000163787936624147145380000012401931921407201184_)"/><linearGradient id="SVGID_00000116940630036212787550000007517244517444089533_" x1="15.515" x2="32.485" y1="32.375" y2="15.405" gradientTransform="matrix(1 0 0 -1 0 47.89)" gradientUnits="userSpaceOnUse"><stop offset="0" stop-color="#f44f5a"/><stop offset=".443" stop-color="#ee3d4a"/><stop offset="1" stop-color="#e52030"/></linearGradient><path fill="url(#SVGID_00000116940630036212787550000007517244517444089533_)" d="M36,24c0,6.6-5.4,12-12,12s-12-5.4-12-12	s5.4-12,12-12S36,17.4,36,24z"/><linearGradient id="SVGID_00000065782510669911310340000003970744436227473047_" x1="18.439" x2="29.585" y1="29.451" y2="18.305" gradientTransform="matrix(1 0 0 -1 0 47.89)" gradientUnits="userSpaceOnUse"><stop offset="0" stop-color="#fafafb"/><stop offset="1" stop-color="#c8cdd1"/></linearGradient><circle cx="24" cy="24" r="8" fill="url(#SVGID_00000065782510669911310340000003970744436227473047_)"/><linearGradient id="SVGID_00000023281410924266965980000014897106996354649748_" x1="21.172" x2="26.828" y1="26.718" y2="21.061" gradientTransform="matrix(1 0 0 -1 0 47.89)" gradientUnits="userSpaceOnUse"><stop offset="0" stop-color="#f44f5a"/><stop offset=".443" stop-color="#ee3d4a"/><stop offset="1" stop-color="#e52030"/></linearGradient><path fill="url(#SVGID_00000023281410924266965980000014897106996354649748_)" d="M28,24c0,2.2-1.8,4-4,4s-4-1.8-4-4	s1.8-4,4-4S28,21.8,28,24z"/><linearGradient id="SVGID_00000044179173041087085720000010639296342581845159_" x1="35.003" x2="43.997" y1="39.388" y2="39.388" gradientTransform="matrix(1 0 0 -1 0 47.89)" gradientUnits="userSpaceOnUse"><stop offset="0" stop-color="#3079d6"/><stop offset="1" stop-color="#297cd2"/></linearGradient><path fill="url(#SVGID_00000044179173041087085720000010639296342581845159_)" d="M35,13V9.2c0-0.8,0.3-1.6,0.9-2.1l2.9-2.9	C39.2,3.8,40,4.1,40,4.7V8h3.3c0.6,0,1,0.8,0.5,1.2l-2.9,2.9c-0.6,0.6-1.3,0.9-2.1,0.9L35,13z"/><path fill="#edbe00" d="M24,25c-0.3,0-0.5-0.1-0.7-0.3c-0.4-0.4-0.4-1,0-1.4l17-17c0.4-0.4,1-0.4,1.4,0s0.4,1,0,1.4l-17,17	C24.5,24.9,24.3,25,24,25z"/></svg>