<svg xmlns="http://www.w3.org/2000/svg"  viewBox="0 0 48 48" width="96px" height="96px"><circle cx="24" cy="24" r="12" fill="#f2f2f2"/><path fill="#808991" d="M43.4,19.2c-2.4,0-4.7-1.3-6-3.5c-1.2-2.1-1.2-4.6-0.2-6.7c-2.1-1.9-4.6-3.3-7.4-4.2C28.6,6.8,26.4,8,24,8	s-4.6-1.2-5.8-3.1c-2.8,0.8-5.3,2.3-7.4,4.2c1,2,1.1,4.6-0.2,6.7c-1.3,2.2-3.6,3.5-6,3.5C4.2,20.8,4,22.4,4,24	c0,1.3,0.1,2.5,0.4,3.8c2.5-0.1,4.9,1.2,6.2,3.5c1.4,2.4,1.2,5.2-0.2,7.3c2.1,1.9,4.6,3.5,7.3,4.4c1.1-2.3,3.5-4,6.3-4	s5.2,1.6,6.3,4c2.8-0.9,5.3-2.4,7.3-4.4c-1.4-2.1-1.6-5-0.2-7.3c1.3-2.3,3.7-3.5,6.2-3.5c0.2-1.2,0.4-2.5,0.4-3.8	C44,22.4,43.8,20.8,43.4,19.2z M36,24c0,1.6-0.3,3.2-0.9,4.6l-5.2-3.7c0-0.3,0.1-0.6,0.1-0.9c0-2.6-1.7-4.8-4-5.7v-6.2	C31.7,13.1,36,18.1,36,24z M22,12.2v6.2c-2.3,0.8-4,3-4,5.7c0,0.3,0,0.6,0.1,0.9l-5.2,3.7c-0.6-1.4-0.9-3-0.9-4.6	C12,18.1,16.3,13.1,22,12.2z M24,36c-3.6,0-6.8-1.6-8.9-4l5-3.5c1.1,0.9,2.5,1.5,4,1.5s2.9-0.6,4-1.5l5,3.5C30.8,34.4,27.6,36,24,36	z"/></svg>