<svg xmlns="http://www.w3.org/2000/svg"  viewBox="0 0 40 40" width="80px" height="80px"><path fill="#7a4f34" d="M12.274,23c0.22,0.265,0.461,0.514,0.726,0.734c0,0.088,0,0.171,0,0.266 c-0.074,0.536-0.379,1.279-0.749,2H11v2v3v4c0,1.65,1.35,3,3,3h2c0-1.304-0.837-2.403-2-2.816V31c1.437-0.5,6.094-3.594,7-6h1v-2 H12.274z"/><path fill="#7a4f34" d="M28,35.184V30l2-4h-5v9c0,1.65,1.35,3,3,3h2C30,36.696,29.163,35.597,28,35.184z"/><path fill="none" stroke="#a16a4a" stroke-linecap="round" stroke-miterlimit="10" stroke-width="4" d="M15.96,5.007 c-0.048,0.862,0.191,4.189-7.061,3.973c-5.713-0.17-6.339,6.29-2.036,8.621c0.462,0.25,0.982,0.453,1.558,0.595"/><path fill="none" stroke="#ffc49c" stroke-linecap="round" stroke-miterlimit="10" stroke-width="2" d="M15.96,5.007 c-0.048,0.862,0.191,4.189-7.061,3.973c-5.713-0.17-6.339,6.29-2.036,8.621c0.462,0.25,0.982,0.453,1.558,0.595"/><path fill="#ffc49c" stroke="#a16a4a" stroke-miterlimit="10" d="M7.96,16.993c0.053-0.111,0.174-0.232,0.268-0.306 C9.387,15.77,10.822,15.5,11.5,15.5H25c0.729,0,1.157-0.389,1.474-1.342l0.91-4.529l6.073,1.735l-0.954,8.58 C32.075,23.928,29.916,26.5,27,26.5h-1.25l-3.223,4.297l-0.957,5.738l0.371,0.151c0.789,0.322,1.345,1.005,1.509,1.813H21V38.5 c-1.378,0-1.649-1.403-1.5-2.5l1.052-10.5h-4.898l-0.122,0.324c-0.814,2.162-5.221,5.191-6.696,5.704L8.5,31.645v4.892 l0.333,0.118c0.835,0.297,1.441,1.007,1.616,1.845H9c-1.378,0-2.5-1.122-2.5-2.5v-6.818c0.154-0.179,0.355-0.396,0.579-0.638 C8.324,27.193,8.366,26,8.495,25.069l0.005-0.57l-0.181-0.15C7.163,23.391,6.5,21.988,6.5,20.5c0-0.501,0.056-0.953,0.157-1.363 c0.039-0.159,0.069-0.319,0.137-0.459"/><path fill="#a16a4a" d="M22.129,36.224L23,31l2.497-4.994L20,29l-1,7c0,1.65,1.35,3,3,3h2 C24,37.743,23.226,36.67,22.129,36.224z"/><path fill="#a16a4a" d="M9,36.184V31l-2-1.662L6,29v7c0,1.65,1.35,3,3,3h2C11,37.696,10.163,36.597,9,36.184z"/><path fill="#a16a4a" d="M28,6l-4-5v8c1.667,0,3.667,0,5,0C29,7.75,28.618,7.083,28,6z"/><path fill="#a16a4a" d="M34,6l4-5v8c-1.667,0-3.667,0-5,0C33,7.75,33.382,7.083,34,6z"/><g><path fill="#ffc49c" stroke="#a16a4a" stroke-miterlimit="10" d="M31,15.5c-3.661,0-6.5-3.494-6.5-6.5 c0-3.033,2.916-5.5,6.5-5.5s6.5,2.467,6.5,5.5C37.5,12.006,34.661,15.5,31,15.5z"/></g><g><path fill="#a16a4a" d="M32,11.25c0-0.138-0.112-0.25-0.25-0.25h-0.082h-1.342H30.25C30.112,11,30,11.112,30,11.25 c0,0.09,0.056,0.155,0.128,0.199l-0.007,0.015L31,12l0.883-0.539l-0.006-0.013C31.946,11.403,32,11.339,32,11.25z"/></g><g><path fill="#a16a4a" d="M27.016,7.016c0,1.013-0.089,2.01,0.435,2.533c0.58,0.58,1.416,0.435,2.533,0.435 c0-1.21,0.05-2.049-0.435-2.533C28.97,6.871,28.448,7.016,27.016,7.016z M34.994,7.016c0,1.013,0.037,2.062-0.435,2.533 c-0.579,0.58-1.416,0.435-2.533,0.435c0-1.21-0.05-2.049,0.435-2.533C33.041,6.871,33.563,7.016,34.994,7.016z"/><circle cx="28.5" cy="8.5" r=".5" fill="#36404d"/><circle cx="33.5" cy="8.5" r=".5" fill="#36404d"/></g></svg>