<?xml version="1.0" encoding="utf-8"?><!-- Generator: Adobe Illustrator 27.2.0, SVG Export Plug-In . SVG Version: 6.00 Build 0)  --><svg xmlns="http://www.w3.org/2000/svg" xmlns:xlink="http://www.w3.org/1999/xlink" viewBox="0 0 48 48" width="96px" height="96px"><style type="text/css">	.st0{fill:url(#SVGID_1_);}	.st1{fill:url(#SVGID_00000081648939900351059450000001735100064461039233_);}	.st2{fill:url(#SVGID_00000039124786092895502880000013615582050009213100_);}	.st3{fill:url(#SVGID_00000111875691235363511860000013222144968814219650_);}	.st4{fill:url(#SVGID_00000116918089121427884440000009761322871582099884_);}	.st5{fill:url(#SVGID_00000145017687516443008830000010949113266540016813_);}	.st6{fill:url(#SVGID_00000160192703064199254530000006510815049680574380_);}	.st7{fill:url(#SVGID_00000142177253958484365060000005346004199431495087_);}	.st8{fill:url(#SVGID_00000141433772231200762870000010355885481889739149_);}	.st9{fill:#FFC800;}	.st10{fill:url(#SVGID_00000085247546852299404020000012298814586580810417_);}	.st11{fill:url(#SVGID_00000104687468982600491290000007394405011662148023_);}	.st12{fill:url(#SVGID_00000057836266979325193270000015246322467123385993_);}	.st13{fill:url(#SVGID_00000119822810679346951620000005750778183881690545_);}	.st14{fill:url(#SVGID_00000031913337385562890380000012299571268857828260_);}</style><linearGradient id="SVGID_1_" gradientUnits="userSpaceOnUse" x1="24.652" y1="9.4286" x2="39.4872" y2="24.2638">	<stop  offset="0" style="stop-color:#FEDE00"/>	<stop  offset="1" style="stop-color:#FFD000"/></linearGradient><rect x="20" y="13.7" class="st0" width="24" height="6.1"/><linearGradient id="SVGID_00000070085055411728306460000004079206306510437040_" gradientUnits="userSpaceOnUse" x1="31.4243" y1="21.784" x2="33.3143" y2="8.992" gradientTransform="matrix(1 0 0 -1 0 50)">	<stop  offset="0" style="stop-color:#FEDE00"/>	<stop  offset="1" style="stop-color:#FFD000"/></linearGradient><path style="fill:url(#SVGID_00000070085055411728306460000004079206306510437040_);" d="M44,30H20c0,0.7,0,3.3,0,4	c0,3.3,5.4,6,12,6s12-2.7,12-6C44,33.3,44,30.7,44,30z"/><linearGradient id="SVGID_00000075157567032346500900000003366049664784584633_" gradientUnits="userSpaceOnUse" x1="31.4243" y1="29.784" x2="33.3143" y2="16.992" gradientTransform="matrix(1 0 0 -1 0 50)">	<stop  offset="0" style="stop-color:#FEDE00"/>	<stop  offset="1" style="stop-color:#FFD000"/></linearGradient><path style="fill:url(#SVGID_00000075157567032346500900000003366049664784584633_);" d="M44,22H20c0,0.7,0,3.3,0,4	c0,3.3,5.4,6,12,6s12-2.7,12-6C44,25.3,44,22.7,44,22z"/><g>			<linearGradient id="SVGID_00000067237185489858963900000009483390501897099967_" gradientUnits="userSpaceOnUse" x1="31.4243" y1="25.784" x2="33.3143" y2="12.992" gradientTransform="matrix(1 0 0 -1 0 50)">		<stop  offset="0" style="stop-color:#E5A505"/>		<stop  offset="0.116" style="stop-color:#EAA804"/>		<stop  offset="0.595" style="stop-color:#F8B301"/>		<stop  offset="1" style="stop-color:#FDB700"/>	</linearGradient>	<path style="fill:url(#SVGID_00000067237185489858963900000009483390501897099967_);" d="M44,26H20c0,0.7,0,3.3,0,4		c0,3.3,5.4,6,12,6s12-2.7,12-6C44,29.3,44,26.7,44,26z"/>			<linearGradient id="SVGID_00000138549184417549385920000003870334435562637227_" gradientUnits="userSpaceOnUse" x1="25.4696" y1="30.5836" x2="38.6946" y2="17.3586" gradientTransform="matrix(1 0 0 -1 0 50)">		<stop  offset="0" style="stop-color:#FEDE00"/>		<stop  offset="1" style="stop-color:#FFD000"/>	</linearGradient>	<ellipse style="fill:url(#SVGID_00000138549184417549385920000003870334435562637227_);" cx="32" cy="26" rx="12" ry="6"/></g><g>			<linearGradient id="SVGID_00000082346631548357209990000015952441586498219442_" gradientUnits="userSpaceOnUse" x1="31.4243" y1="33.784" x2="33.3143" y2="20.992" gradientTransform="matrix(1 0 0 -1 0 50)">		<stop  offset="0" style="stop-color:#E5A505"/>		<stop  offset="0.116" style="stop-color:#EAA804"/>		<stop  offset="0.595" style="stop-color:#F8B301"/>		<stop  offset="1" style="stop-color:#FDB700"/>	</linearGradient>	<path style="fill:url(#SVGID_00000082346631548357209990000015952441586498219442_);" d="M44,18H20c0,0.7,0,3.3,0,4		c0,3.3,5.4,6,12,6s12-2.7,12-6C44,21.3,44,18.7,44,18z"/>			<linearGradient id="SVGID_00000071548778508936428290000018381638255413719970_" gradientUnits="userSpaceOnUse" x1="25.4696" y1="38.4984" x2="38.6946" y2="25.2734" gradientTransform="matrix(1 0 0 -1 0 50)">		<stop  offset="0" style="stop-color:#FEDE00"/>		<stop  offset="1" style="stop-color:#FFD000"/>	</linearGradient>	<ellipse style="fill:url(#SVGID_00000071548778508936428290000018381638255413719970_);" cx="32" cy="18" rx="12" ry="6"/></g><g>			<linearGradient id="SVGID_00000047054045374184362580000014175140696428069522_" gradientUnits="userSpaceOnUse" x1="31.4243" y1="41.784" x2="33.3143" y2="28.992" gradientTransform="matrix(1 0 0 -1 0 50)">		<stop  offset="0" style="stop-color:#E5A505"/>		<stop  offset="0.116" style="stop-color:#EAA804"/>		<stop  offset="0.595" style="stop-color:#F8B301"/>		<stop  offset="1" style="stop-color:#FDB700"/>	</linearGradient>	<path style="fill:url(#SVGID_00000047054045374184362580000014175140696428069522_);" d="M44,10H20c0,0.7,0,3.3,0,4		c0,3.3,5.4,6,12,6s12-2.7,12-6C44,13.3,44,10.7,44,10z"/>			<linearGradient id="SVGID_00000100356946232637507750000011774082618859266985_" gradientUnits="userSpaceOnUse" x1="25.459" y1="46.541" x2="38.684" y2="33.316" gradientTransform="matrix(1 0 0 -1 0 50)">		<stop  offset="0" style="stop-color:#FEDE00"/>		<stop  offset="1" style="stop-color:#FFD000"/>	</linearGradient>	<ellipse style="fill:url(#SVGID_00000100356946232637507750000011774082618859266985_);" cx="32" cy="10" rx="12" ry="6"/>	<ellipse class="st9" cx="32" cy="10" rx="9" ry="4"/></g><linearGradient id="SVGID_00000116234869641214454860000006634048922439705003_" gradientUnits="userSpaceOnUse" x1="8.6653" y1="25.3435" x2="23.5005" y2="40.1786">	<stop  offset="0" style="stop-color:#FEDE00"/>	<stop  offset="1" style="stop-color:#FFD000"/></linearGradient><rect x="4" y="29.6" style="fill:url(#SVGID_00000116234869641214454860000006634048922439705003_);" width="24" height="6.1"/><g>			<linearGradient id="SVGID_00000165217355121538396760000017704017527031711409_" gradientUnits="userSpaceOnUse" x1="15.4243" y1="17.784" x2="17.3143" y2="4.992" gradientTransform="matrix(1 0 0 -1 0 50)">		<stop  offset="0" style="stop-color:#E5A505"/>		<stop  offset="0.116" style="stop-color:#EAA804"/>		<stop  offset="0.595" style="stop-color:#F8B301"/>		<stop  offset="1" style="stop-color:#FDB700"/>	</linearGradient>	<path style="fill:url(#SVGID_00000165217355121538396760000017704017527031711409_);" d="M28,34H4c0,0.7,0,3.3,0,4		c0,3.3,5.4,6,12,6s12-2.7,12-6C28,37.3,28,34.7,28,34z"/>			<linearGradient id="SVGID_00000145745195307896003490000009560471175866359203_" gradientUnits="userSpaceOnUse" x1="9.475" y1="22.5774" x2="22.6876" y2="9.3648" gradientTransform="matrix(1 0 0 -1 0 50)">		<stop  offset="0" style="stop-color:#FEDE00"/>		<stop  offset="1" style="stop-color:#FFD000"/>	</linearGradient>	<ellipse style="fill:url(#SVGID_00000145745195307896003490000009560471175866359203_);" cx="16" cy="34" rx="12" ry="6"/></g><linearGradient id="SVGID_00000001644959392363781040000007050874151557391775_" gradientUnits="userSpaceOnUse" x1="15.4243" y1="25.784" x2="17.3143" y2="12.992" gradientTransform="matrix(1 0 0 -1 0 50)">	<stop  offset="0" style="stop-color:#E5A505"/>	<stop  offset="0.116" style="stop-color:#EAA804"/>	<stop  offset="0.595" style="stop-color:#F8B301"/>	<stop  offset="1" style="stop-color:#FDB700"/></linearGradient><path style="fill:url(#SVGID_00000001644959392363781040000007050874151557391775_);" d="M28,26H4c0,0.7,0,3.3,0,4c0,3.3,5.4,6,12,6	s12-2.7,12-6C28,29.3,28,26.7,28,26z"/><linearGradient id="SVGID_00000116935072473450672120000005931564505935353220_" gradientUnits="userSpaceOnUse" x1="9.459" y1="30.541" x2="22.684" y2="17.316" gradientTransform="matrix(1 0 0 -1 0 50)">	<stop  offset="0" style="stop-color:#FEDE00"/>	<stop  offset="1" style="stop-color:#FFD000"/></linearGradient><ellipse style="fill:url(#SVGID_00000116935072473450672120000005931564505935353220_);" cx="16" cy="26" rx="12" ry="6"/><ellipse class="st9" cx="16" cy="26" rx="9" ry="4"/></svg>