<svg xmlns="http://www.w3.org/2000/svg"  viewBox="0 0 40 40" width="80px" height="80px"><path fill="#4788c7" d="M24.3,5l0.7,2h-9.9l0.7-2H24.3 M24.3,4h-8.6c-0.4,0-0.8,0.3-0.9,0.7L14,7v1h12V7l-0.8-2.3	C25.1,4.3,24.7,4,24.3,4L24.3,4z"/><path fill="#dff0fe" stroke="#4788c7" stroke-miterlimit="10" d="M8,39.5c-0.8,0-1.5-0.7-1.5-1.5c0,0,0-7.9,0-13s0-14.5,0-14.5l27,0c0,0,0,8.5,0,14.5s0,13,0,13	c0,0.8-0.7,1.5-1.5,1.5H8z"/><path fill="#4788c7" d="M24.5,37L24.5,37c-0.3,0-0.5-0.2-0.5-0.5v-23c0-0.3,0.2-0.5,0.5-0.5l0,0c0.3,0,0.5,0.2,0.5,0.5v23	C25,36.8,24.8,37,24.5,37z"/><path fill="#4788c7" d="M15.5,37L15.5,37c-0.3,0-0.5-0.2-0.5-0.5v-23c0-0.3,0.2-0.5,0.5-0.5l0,0c0.3,0,0.5,0.2,0.5,0.5v23	C16,36.8,15.8,37,15.5,37z"/><path fill="#4788c7" d="M10.5,37L10.5,37c-0.3,0-0.5-0.2-0.5-0.5v-23c0-0.3,0.2-0.5,0.5-0.5l0,0c0.3,0,0.5,0.2,0.5,0.5v23	C11,36.8,10.8,37,10.5,37z"/><path fill="#4788c7" d="M29.5,37L29.5,37c-0.3,0-0.5-0.2-0.5-0.5v-23c0-0.3,0.2-0.5,0.5-0.5l0,0c0.3,0,0.5,0.2,0.5,0.5v23	C30,36.8,29.8,37,29.5,37z"/><path fill="#dff0fe" stroke="#4788c7" stroke-miterlimit="10" d="M4.5,10.5V9c0-0.8,0.7-1.5,1.5-1.5h28c0.8,0,1.5,0.7,1.5,1.5v1.5H4.5z"/></svg>